<svg width="201" height="49" viewBox="0 0 201 49" fill="none" xmlns="http://www.w3.org/2000/svg">
<path fill-rule="evenodd" clip-rule="evenodd" d="M34 38H31L12 49H34C36.2091 49 38 47.2091 38 45V42C38 39.7909 36.2091 38 34 38Z" fill="#004AC0"/>
<path fill-rule="evenodd" clip-rule="evenodd" d="M34 18H31L12 7H34C36.2091 7 38 8.79086 38 11V14C38 16.2091 36.2091 18 34 18Z" fill="#004AC0"/>
<path d="M57.6601 39.28C55.2868 39.28 53.2068 38.8133 51.4201 37.88C49.6601 36.92 48.2868 35.6133 47.3001 33.96C46.3401 32.3067 45.8601 30.4267 45.8601 28.32C45.8601 26.1867 46.3268 24.3067 47.2601 22.68C48.2201 21.0267 49.5268 19.7333 51.1801 18.8C52.8601 17.8667 54.7668 17.4 56.9001 17.4C58.9801 17.4 60.8334 17.8533 62.4601 18.76C64.0868 19.6667 65.3668 20.9467 66.3001 22.6C67.2334 24.2533 67.7001 26.2 67.7001 28.44C67.7001 28.6533 67.6868 28.8933 67.6601 29.16C67.6601 29.4267 67.6468 29.68 67.6201 29.92H49.8201V26.6H64.9801L63.0201 27.64C63.0468 26.4133 62.7934 25.3333 62.2601 24.4C61.7268 23.4667 60.9934 22.7333 60.0601 22.2C59.1534 21.6667 58.1001 21.4 56.9001 21.4C55.6734 21.4 54.5934 21.6667 53.6601 22.2C52.7534 22.7333 52.0334 23.48 51.5001 24.44C50.9934 25.3733 50.7401 26.48 50.7401 27.76V28.56C50.7401 29.84 51.0334 30.9733 51.6201 31.96C52.2068 32.9467 53.0334 33.7067 54.1001 34.24C55.1668 34.7733 56.3934 35.04 57.7801 35.04C58.9801 35.04 60.0601 34.8533 61.0201 34.48C61.9801 34.1067 62.8334 33.52 63.5801 32.72L66.2601 35.8C65.3001 36.92 64.0868 37.7867 62.6201 38.4C61.1801 38.9867 59.5268 39.28 57.6601 39.28ZM84.6229 17.4C86.3296 17.4 87.8496 17.7333 89.1829 18.4C90.5429 19.0667 91.6096 20.0933 92.3829 21.48C93.1562 22.84 93.5429 24.6 93.5429 26.76V39H88.5429V27.4C88.5429 25.5067 88.0896 24.0933 87.1829 23.16C86.3029 22.2267 85.0629 21.76 83.4629 21.76C82.2896 21.76 81.2496 22 80.3429 22.48C79.4362 22.96 78.7296 23.68 78.2229 24.64C77.7429 25.5733 77.5029 26.76 77.5029 28.2V39H72.5029V17.64H77.2629V23.4L76.4229 21.64C77.1696 20.28 78.2496 19.24 79.6629 18.52C81.1029 17.7733 82.7562 17.4 84.6229 17.4ZM99.8857 39V17.64H104.646V23.52L104.086 21.8C104.726 20.36 105.726 19.2667 107.086 18.52C108.472 17.7733 110.192 17.4 112.246 17.4V22.16C112.032 22.1067 111.832 22.08 111.646 22.08C111.459 22.0533 111.272 22.04 111.086 22.04C109.192 22.04 107.686 22.6 106.566 23.72C105.446 24.8133 104.886 26.4533 104.886 28.64V39H99.8857ZM116.487 39V17.64H121.487V39H116.487ZM119.007 14.12C118.074 14.12 117.301 13.8267 116.687 13.24C116.101 12.6533 115.807 11.9467 115.807 11.12C115.807 10.2667 116.101 9.56 116.687 9C117.301 8.41333 118.074 8.12 119.007 8.12C119.941 8.12 120.701 8.4 121.287 8.96C121.901 9.49333 122.207 10.1733 122.207 11C122.207 11.88 121.914 12.6267 121.327 13.24C120.741 13.8267 119.967 14.12 119.007 14.12Z" fill="white"/>
<path d="M137.09 39.28C135.036 39.28 133.183 38.8267 131.53 37.92C129.903 36.9867 128.623 35.7067 127.69 34.08C126.756 32.4533 126.29 30.5333 126.29 28.32C126.29 26.1067 126.756 24.1867 127.69 22.56C128.623 20.9333 129.903 19.6667 131.53 18.76C133.183 17.8533 135.036 17.4 137.09 17.4C138.876 17.4 140.476 17.8 141.89 18.6C143.303 19.3733 144.423 20.56 145.25 22.16C146.076 23.76 146.49 25.8133 146.49 28.32C146.49 30.8 146.09 32.8533 145.29 34.48C144.49 36.08 143.383 37.28 141.97 38.08C140.556 38.88 138.93 39.28 137.09 39.28ZM137.69 35C138.89 35 139.956 34.7333 140.89 34.2C141.85 33.6667 142.61 32.8933 143.17 31.88C143.756 30.8667 144.05 29.68 144.05 28.32C144.05 26.9333 143.756 25.7467 143.17 24.76C142.61 23.7467 141.85 22.9733 140.89 22.44C139.956 21.9067 138.89 21.64 137.69 21.64C136.49 21.64 135.41 21.9067 134.45 22.44C133.516 22.9733 132.756 23.7467 132.17 24.76C131.61 25.7467 131.33 26.9333 131.33 28.32C131.33 29.68 131.61 30.8667 132.17 31.88C132.756 32.8933 133.516 33.6667 134.45 34.2C135.41 34.7333 136.49 35 137.69 35ZM144.17 39V33.96L144.37 28.28L143.97 22.6V9.32H148.93V39H144.17ZM165.551 39.28C163.177 39.28 161.097 38.8133 159.311 37.88C157.551 36.92 156.177 35.6133 155.191 33.96C154.231 32.3067 153.751 30.4267 153.751 28.32C153.751 26.1867 154.217 24.3067 155.151 22.68C156.111 21.0267 157.417 19.7333 159.071 18.8C160.751 17.8667 162.657 17.4 164.791 17.4C166.871 17.4 168.724 17.8533 170.351 18.76C171.977 19.6667 173.257 20.9467 174.191 22.6C175.124 24.2533 175.591 26.2 175.591 28.44C175.591 28.6533 175.577 28.8933 175.551 29.16C175.551 29.4267 175.537 29.68 175.511 29.92H157.711V26.6H172.871L170.911 27.64C170.937 26.4133 170.684 25.3333 170.151 24.4C169.617 23.4667 168.884 22.7333 167.951 22.2C167.044 21.6667 165.991 21.4 164.791 21.4C163.564 21.4 162.484 21.6667 161.551 22.2C160.644 22.7333 159.924 23.48 159.391 24.44C158.884 25.3733 158.631 26.48 158.631 27.76V28.56C158.631 29.84 158.924 30.9733 159.511 31.96C160.097 32.9467 160.924 33.7067 161.991 34.24C163.057 34.7733 164.284 35.04 165.671 35.04C166.871 35.04 167.951 34.8533 168.911 34.48C169.871 34.1067 170.724 33.52 171.471 32.72L174.151 35.8C173.191 36.92 171.977 37.7867 170.511 38.4C169.071 38.9867 167.417 39.28 165.551 39.28ZM185.683 39L176.523 17.64H181.723L189.603 36.48H187.043L195.203 17.64H200.003L190.843 39H185.683Z" fill="#179AFC"/>
<path d="M5 44L33 28" stroke="#179AFC" stroke-width="10" stroke-linecap="round"/>
<path d="M5 12L33 28" stroke="#179AFC" stroke-width="10" stroke-linecap="round"/>
</svg>
