<svg width="162" height="40" viewBox="0 0 162 40" fill="none" xmlns="http://www.w3.org/2000/svg">
<rect x="32.4506" y="38.3451" width="7.03747" height="8.60135" rx="3.51874" transform="rotate(-180 32.4506 38.3451)" fill="#004AC0"/>
<path d="M26.586 29.7438L29.3228 29.7438L29.3228 38.3451L11.7291 38.3451L26.586 29.7438Z" fill="#004AC0"/>
<rect width="7.03747" height="8.60135" rx="3.51874" transform="matrix(-1 3.10143e-07 2.46427e-08 1 32.4506 5.5036)" fill="#004AC0"/>
<path d="M26.586 14.1049L29.3228 14.1049L29.3228 5.5036L11.7291 5.5036L26.586 14.1049Z" fill="#004AC0"/>
<rect x="3.87006" y="3.9397" width="32.8576" height="7.74007" rx="3.87003" transform="rotate(30 3.87006 3.9397)" fill="#179AFC"/>
<rect x="32.5914" y="23.1539" width="32.8576" height="7.74007" rx="3.87003" transform="rotate(150 32.5914 23.1539)" fill="#179AFC"/>
<path d="M47.656 31.224C45.7573 31.224 44.0933 30.8507 42.664 30.104C41.256 29.336 40.1573 28.2907 39.368 26.968C38.6 25.6453 38.216 24.1413 38.216 22.456C38.216 20.7493 38.5893 19.2453 39.336 17.944C40.104 16.6213 41.1493 15.5867 42.472 14.84C43.816 14.0933 45.3413 13.72 47.048 13.72C48.712 13.72 50.1947 14.0827 51.496 14.808C52.7973 15.5333 53.8213 16.5573 54.568 17.88C55.3147 19.2027 55.688 20.76 55.688 22.552C55.688 22.7227 55.6773 22.9147 55.656 23.128C55.656 23.3413 55.6453 23.544 55.624 23.736H41.384V21.08H53.512L51.944 21.912C51.9653 20.9307 51.7627 20.0667 51.336 19.32C50.9093 18.5733 50.3227 17.9867 49.576 17.56C48.8507 17.1333 48.008 16.92 47.048 16.92C46.0667 16.92 45.2027 17.1333 44.456 17.56C43.7307 17.9867 43.1547 18.584 42.728 19.352C42.3227 20.0987 42.12 20.984 42.12 22.008V22.648C42.12 23.672 42.3547 24.5787 42.824 25.368C43.2933 26.1573 43.9547 26.7653 44.808 27.192C45.6613 27.6187 46.6427 27.832 47.752 27.832C48.712 27.832 49.576 27.6827 50.344 27.384C51.112 27.0853 51.7947 26.616 52.392 25.976L54.536 28.44C53.768 29.336 52.7973 30.0293 51.624 30.52C50.472 30.9893 49.1493 31.224 47.656 31.224ZM69.2263 13.72C70.5916 13.72 71.8076 13.9867 72.8743 14.52C73.9623 15.0533 74.8156 15.8747 75.4343 16.984C76.0529 18.072 76.3623 19.48 76.3623 21.208V31H72.3623V21.72C72.3623 20.2053 71.9996 19.0747 71.2743 18.328C70.5703 17.5813 69.5783 17.208 68.2983 17.208C67.3596 17.208 66.5276 17.4 65.8023 17.784C65.0769 18.168 64.5116 18.744 64.1063 19.512C63.7223 20.2587 63.5303 21.208 63.5303 22.36V31H59.5303V13.912H63.3383V18.52L62.6663 17.112C63.2636 16.024 64.1276 15.192 65.2583 14.616C66.4103 14.0187 67.7329 13.72 69.2263 13.72ZM81.4365 31V13.912H85.2445V18.616L84.7965 17.24C85.3085 16.088 86.1085 15.2133 87.1965 14.616C88.3058 14.0187 89.6818 13.72 91.3245 13.72V17.528C91.1538 17.4853 90.9938 17.464 90.8445 17.464C90.6952 17.4427 90.5458 17.432 90.3965 17.432C88.8818 17.432 87.6765 17.88 86.7805 18.776C85.8845 19.6507 85.4365 20.9627 85.4365 22.712V31H81.4365ZM94.7178 31V13.912H98.7178V31H94.7178ZM96.7338 11.096C95.9871 11.096 95.3684 10.8613 94.8778 10.392C94.4084 9.92267 94.1738 9.35733 94.1738 8.696C94.1738 8.01333 94.4084 7.448 94.8778 7C95.3684 6.53067 95.9871 6.296 96.7338 6.296C97.4804 6.296 98.0884 6.52 98.5578 6.968C99.0484 7.39467 99.2938 7.93867 99.2938 8.6C99.2938 9.304 99.0591 9.90133 98.5898 10.392C98.1204 10.8613 97.5018 11.096 96.7338 11.096Z" fill="white"/>
<path d="M111.2 31.224C109.557 31.224 108.074 30.8613 106.752 30.136C105.45 29.3893 104.426 28.3653 103.68 27.064C102.933 25.7627 102.56 24.2267 102.56 22.456C102.56 20.6853 102.933 19.1493 103.68 17.848C104.426 16.5467 105.45 15.5333 106.752 14.808C108.074 14.0827 109.557 13.72 111.2 13.72C112.629 13.72 113.909 14.04 115.04 14.68C116.17 15.2987 117.066 16.248 117.728 17.528C118.389 18.808 118.72 20.4507 118.72 22.456C118.72 24.44 118.4 26.0827 117.76 27.384C117.12 28.664 116.234 29.624 115.104 30.264C113.973 30.904 112.672 31.224 111.2 31.224ZM111.68 27.8C112.64 27.8 113.493 27.5867 114.24 27.16C115.008 26.7333 115.616 26.1147 116.064 25.304C116.533 24.4933 116.768 23.544 116.768 22.456C116.768 21.3467 116.533 20.3973 116.064 19.608C115.616 18.7973 115.008 18.1787 114.24 17.752C113.493 17.3253 112.64 17.112 111.68 17.112C110.72 17.112 109.856 17.3253 109.088 17.752C108.341 18.1787 107.733 18.7973 107.264 19.608C106.816 20.3973 106.592 21.3467 106.592 22.456C106.592 23.544 106.816 24.4933 107.264 25.304C107.733 26.1147 108.341 26.7333 109.088 27.16C109.856 27.5867 110.72 27.8 111.68 27.8ZM116.864 31V26.968L117.024 22.424L116.704 17.88V7.256H120.672V31H116.864ZM133.969 31.224C132.07 31.224 130.406 30.8507 128.977 30.104C127.569 29.336 126.47 28.2907 125.681 26.968C124.913 25.6453 124.529 24.1413 124.529 22.456C124.529 20.7493 124.902 19.2453 125.649 17.944C126.417 16.6213 127.462 15.5867 128.785 14.84C130.129 14.0933 131.654 13.72 133.361 13.72C135.025 13.72 136.507 14.0827 137.809 14.808C139.11 15.5333 140.134 16.5573 140.881 17.88C141.627 19.2027 142.001 20.76 142.001 22.552C142.001 22.7227 141.99 22.9147 141.969 23.128C141.969 23.3413 141.958 23.544 141.937 23.736H127.697V21.08H139.825L138.257 21.912C138.278 20.9307 138.075 20.0667 137.649 19.32C137.222 18.5733 136.635 17.9867 135.889 17.56C135.163 17.1333 134.321 16.92 133.361 16.92C132.379 16.92 131.515 17.1333 130.769 17.56C130.043 17.9867 129.467 18.584 129.041 19.352C128.635 20.0987 128.433 20.984 128.433 22.008V22.648C128.433 23.672 128.667 24.5787 129.137 25.368C129.606 26.1573 130.267 26.7653 131.121 27.192C131.974 27.6187 132.955 27.832 134.065 27.832C135.025 27.832 135.889 27.6827 136.657 27.384C137.425 27.0853 138.107 26.616 138.705 25.976L140.849 28.44C140.081 29.336 139.11 30.0293 137.937 30.52C136.785 30.9893 135.462 31.224 133.969 31.224ZM150.074 31L142.746 13.912H146.906L153.21 28.984H151.162L157.69 13.912H161.53L154.202 31H150.074Z" fill="#179AFC"/>
</svg>
